PathFileType	4	(X/Y/Z)	S1_rest_med_left.trc
DataRate	CameraRate	NumFrames	NumMarkers	Units	OrigDataRate	OrigDataStartFrame	OrigNumFrames
250.00	250.00	6	18	mm	250.00	16960	22613
Frame#	Time	c7	r_should	l_should	clavicle	r_upa	r_elb_l	r_elb_m	r_low	r_wri_l	r_wri_m	r_met	l_upa	l_elb_l	l_elb_m	l_low	l_wri_l	l_wri_m	l_met
	X1	Y1	Z1	X2	Y2	Z2	X3	Y3	Z3	X4	Y4	Z4	X5	Y5	Z5	X6	Y6	Z6	X7	Y7	Z7	X8	Y8	Z8	X9	Y9	Z9	X10	Y10	Z10	X11	Y11	Z11	X12	Y12	Z12	X13	Y13	Z13	X14	Y14	Z14	X15	Y15	Z15	X16	Y16	Z16	X17	Y17	Z17	X18	Y18	Z18
16960	67.83600	400.92712	1408.47449	44.26599	506.82150	1345.27136	207.89967	399.42194	1371.91516	-139.01556	548.61560	1310.82812	-1.78081	512.33795	1145.78699	271.87289	538.47382	1049.39771	280.50967	462.67947	1018.34943	221.05884	538.91479	915.50446	289.86548	635.49353	863.79919	236.81203	580.25702	824.96582	261.50198	695.04395	791.65222	233.83571	472.24329	1178.46484	-207.72841	491.01709	1136.56677	-227.35504	533.60950	1083.42004	-134.73946	603.84888	1180.08044	-199.97755	599.47858	1285.12854	-212.92206	657.93732	1269.86475	-170.79863	648.09473	1344.41235	-233.53479
16961	67.84000	400.96066	1408.48059	44.23779	506.82480	1345.27246	207.89812	399.48132	1371.89917	-139.04199	548.64441	1310.81250	-1.76860	512.33325	1145.77893	271.84314	538.55872	1049.25220	280.52811	462.66763	1018.34857	221.03619	538.90485	915.48798	289.84296	635.47479	863.78174	236.78708	580.23853	824.94922	261.47540	695.01788	791.63373	233.80725	472.28101	1178.42798	-207.70526	491.05804	1136.52954	-227.32062	533.64252	1083.38416	-134.66847	603.86060	1180.06372	-199.89343	599.45831	1285.11072	-212.83121	657.94678	1269.73938	-170.40094	648.06854	1344.38135	-233.44693
16962	67.84400	400.99017	1408.48145	44.20394	506.82257	1345.27197	207.89751	399.54446	1371.88245	-139.06845	548.67535	1310.78821	-1.75300	512.33032	1145.77075	271.83447	538.42828	1049.43201	280.46539	462.64783	1018.34991	221.01546	538.89594	915.47534	289.82443	635.45703	863.76843	236.76393	580.22089	824.93701	261.44907	694.99182	791.61212	233.77614	472.31158	1178.39111	-207.68651	491.09280	1136.50293	-227.30252	533.66797	1083.34448	-134.60147	603.86279	1180.05005	-199.81194	599.43689	1285.09827	-212.75002	658.03094	1269.43701	-169.76091	648.04474	1344.34009	-233.36426
16963	67.84800	401.02499	1408.48047	44.17363	506.82043	1345.27051	207.88548	399.60980	1371.86768	-139.10057	548.70459	1310.76123	-1.73528	512.32458	1145.76501	271.83630	538.38458	1049.46997	280.43021	462.63104	1018.35229	220.99426	538.88611	915.46680	289.81030	635.43707	863.75806	236.74826	580.20398	824.93054	261.43051	694.96857	791.59607	233.75304	472.34796	1178.35901	-207.68124	491.13300	1136.47742	-227.28575	533.69019	1083.30298	-134.54131	603.86298	1180.03442	-199.73625	599.41998	1285.08752	-212.67430	658.01892	1269.37793	-169.42128	648.02032	1344.29785	-233.27461
16964	67.85200	401.06067	1408.48523	44.14320	506.81461	1345.26758	207.87766	399.67865	1371.84985	-139.12558	548.72998	1310.73376	-1.72434	512.32532	1145.76672	271.81628	538.36047	1049.47571	280.40356	462.63461	1018.34747	220.97249	538.87494	915.46332	289.79272	635.41949	863.74677	236.72878	580.18842	824.92407	261.40860	694.94977	791.58490	233.73116	472.38596	1178.33044	-207.67906	491.18341	1136.45361	-227.26315	533.69843	1083.26196	-134.50256	603.86298	1180.02502	-199.67197	599.39954	1285.08191	-212.59708	657.91315	1269.50928	-169.35196	647.99976	1344.25854	-233.19232
16965	67.85600	401.09167	1408.48669	44.11492	506.80750	1345.26990	207.87617	399.73932	1371.84082	-139.15103	548.75684	1310.71448	-1.71460	512.31604	1145.76526	271.80096	538.34198	1049.47156	280.39450	462.62277	1018.35406	220.94469	538.86243	915.45917	289.77310	635.40350	863.73853	236.71182	580.17236	824.91907	261.38632	694.93054	791.57214	233.70880	472.42017	1178.30530	-207.67804	491.22803	1136.43726	-227.25681	533.70917	1083.22620	-134.47670	603.86371	1180.02197	-199.61061	599.37872	1285.07593	-212.51611	657.74121	1269.84058	-169.50201	647.97705	1344.22083	-233.11540
